<?xml version="1.0" encoding="UTF-8"?>
<svg id="Layer_2" data-name="Layer 2" xmlns="http://www.w3.org/2000/svg" viewBox="0 0 59.23 59.23">
  <defs>
    <style>
      .cls-1 {
        fill: #fff;
      }

      .cls-2 {
        fill: #407bff;
      }
    </style>
  </defs>
  <g id="Layer_1-2" data-name="Layer 1">
    <circle class="cls-2" cx="29.62" cy="29.62" r="29.62"/>
    <g>
      <path class="cls-1" d="M38.22,8.48c-1.61,.29-3.23,1.01-4.53,2-.96,.73-9.25,9.07-9.54,9.59l-.21,.38,.38-.07c1.51-.27,3.3-.18,5.03,.27l.88,.22,3.34-3.32c2.95-2.94,3.42-3.36,4.06-3.66,2.23-1.03,4.52-.67,6.33,1.04,1.43,1.35,1.92,2.44,1.92,4.26,0,1.3-.2,2.05-.81,2.99-.18,.28-2.23,2.41-4.57,4.74-4,3.96-4.3,4.24-5.03,4.57-1.34,.6-2.5,.68-3.94,.28-.83-.22-1.31-.49-2.08-1.13-1.09-.9-1.65-1.09-2.61-.89-.82,.18-1.68,1.03-1.85,1.85-.21,1.02,.07,1.75,1.02,2.65,2.12,2.01,5.3,3.05,8.25,2.7,1.95-.23,3.74-.95,5.26-2.1,1.08-.82,8.98-8.81,9.55-9.66,.68-1.01,1.29-2.39,1.58-3.52,.34-1.38,.34-3.8-.01-5.1-.94-3.52-3.76-6.54-7.2-7.73-1.51-.52-3.6-.67-5.21-.38Z"/>
      <path class="cls-1" d="M24.76,22.31c-1.52,.21-3.22,.88-4.61,1.81-.81,.54-8.81,8.48-9.66,9.57-2.46,3.22-2.85,7.54-.99,11.21,1.37,2.69,4.11,4.91,7.02,5.68,1.49,.4,3.71,.42,5.17,.06,1.13-.29,2.51-.9,3.52-1.58,1.29-.87,10.28-9.95,10.06-10.17-.02-.02-.5,.01-1.07,.08-1.22,.14-2.92,0-4.26-.36l-.88-.24-3.29,3.27c-1.9,1.89-3.51,3.4-3.8,3.56-.93,.52-1.63,.69-2.83,.68-1.78-.02-2.88-.52-4.21-1.93-1.7-1.81-2.08-4.09-1.04-6.33,.31-.66,.77-1.15,4.62-5.02,3.72-3.73,4.38-4.35,5.04-4.7,1.4-.74,2.94-.88,4.35-.39,.84,.29,1.2,.49,1.92,1.1,1.09,.9,1.65,1.09,2.61,.89,.82-.18,1.68-1.03,1.85-1.85,.21-1.02-.07-1.75-1.02-2.65-.71-.68-1.93-1.49-2.83-1.89-1.56-.69-4.01-1.04-5.68-.81Z"/>
    </g>
  </g>
</svg>