<?xml version="1.0" standalone="no"?>
<svg viewBox="0 0 200 200" xmlns="http://www.w3.org/2000/svg">
  <path fill="#FF0066" d="M37,-53.5C50.7,-56.2,66.5,-51.9,67.5,-41.8C68.4,-31.7,54.4,-15.8,52,-1.4C49.5,13,58.6,26,57,35C55.4,43.9,43.2,48.8,31.9,55.6C20.6,62.4,10.3,71.1,-1,72.7C-12.2,74.4,-24.4,69,-29.6,58.6C-34.7,48.3,-32.8,33.1,-33.4,22.5C-34,11.9,-37.1,5.9,-41.9,-2.8C-46.7,-11.5,-53.2,-23,-51.7,-32.1C-50.3,-41.2,-40.9,-47.9,-31,-47.4C-21,-46.9,-10.5,-39.2,0.6,-40.2C11.6,-41.1,23.3,-50.8,37,-53.5Z" transform="translate(100 100)" />
</svg>
