<?xml version="1.0" encoding="utf-8"?>
<!-- Generator: Adobe Illustrator 26.5.0, SVG Export Plug-In . SVG Version: 6.00 Build 0)  -->
<svg version="1.1" id="Layer_1" xmlns="http://www.w3.org/2000/svg" xmlns:xlink="http://www.w3.org/1999/xlink" x="0px" y="0px"
	 viewBox="0 0 56 56" style="enable-background:new 0 0 56 56;" xml:space="preserve">
<style type="text/css">
	.st0{fill:#5274B8;}
	.st1{fill:#FFFFFF;}
</style>
<circle class="st0" cx="28" cy="28" r="28"/>
<g>
	<g transform="translate(0.000000,511.000000) scale(0.100000,-0.100000)">
		<path class="st1" d="M345.9,4991.8c-12.3-2.2-24.7-7.7-34.7-15.3c-7.3-5.6-70.8-69.5-73-73.5l-1.6-2.9l2.9,0.5
			c11.6,2,25.2,1.4,38.5-2l6.7-1.7l25.6,25.4c22.6,22.5,26.2,25.8,31.1,28.1c17.1,7.9,34.6,5.1,48.5-8c11-10.4,14.7-18.7,14.7-32.6
			c0-9.9-1.5-15.7-6.2-22.9c-1.4-2.1-17.1-18.4-35-36.3c-30.6-30.4-32.9-32.5-38.5-35c-10.3-4.6-19.1-5.2-30.2-2.1
			c-6.4,1.7-10,3.7-15.9,8.7c-8.3,6.9-12.7,8.3-20,6.8c-6.3-1.4-12.8-7.9-14.2-14.2c-1.6-7.8,0.5-13.4,7.8-20.3
			c16.2-15.4,40.6-23.4,63.2-20.7c15,1.8,28.7,7.3,40.3,16.1c8.3,6.3,68.8,67.5,73.1,74c5.2,7.7,9.9,18.3,12.1,27
			c2.6,10.5,2.6,29.1-0.1,39c-7.2,27-28.8,50.1-55.2,59.2C374.2,4993,358.2,4994.1,345.9,4991.8z"/>
		<path class="st1" d="M242.8,4886c-11.6-1.6-24.7-6.7-35.3-13.9c-6.2-4.2-67.5-65-74-73.3c-18.9-24.7-21.8-57.7-7.6-85.9
			c10.5-20.6,31.5-37.6,53.7-43.5c11.4-3.1,28.4-3.2,39.6-0.4c8.7,2.2,19.2,6.9,27,12.1c9.9,6.6,78.7,76.2,77,77.9
			c-0.2,0.2-3.8-0.1-8.2-0.6c-9.4-1.1-22.4,0-32.6,2.7l-6.7,1.9l-25.2-25.1c-14.5-14.5-26.9-26-29.1-27.3c-7.1-4-12.5-5.3-21.7-5.2
			c-13.6,0.2-22,4-32.2,14.8c-13,13.9-15.9,31.3-8,48.5c2.4,5,5.9,8.8,35.4,38.4c28.5,28.6,33.6,33.3,38.6,36
			c10.7,5.7,22.5,6.7,33.3,3c6.5-2.2,9.2-3.7,14.7-8.4c8.3-6.9,12.7-8.3,20-6.8c6.3,1.4,12.8,7.9,14.2,14.2
			c1.6,7.8-0.5,13.4-7.8,20.3c-5.4,5.2-14.8,11.4-21.7,14.5C274.3,4885.1,255.6,4887.8,242.8,4886z"/>
	</g>
</g>
</svg>
